<svg xmlns="http://www.w3.org/2000/svg" width="440" height="96" fill="none" viewBox="10 3 440.5 96"><path fill="#1a66f4" d="M140.052 32.426a25.93 25.93 0 0 1 17.417 6.967 54.6 54.6 0 0 1 7.354-13.16 39.87 39.87 0 0 0-24.771-8.515 40.642 40.642 0 0 0 0 81.282 39.87 39.87 0 0 0 24.771-8.516 54.6 54.6 0 0 1-7.354-13.16 25.93 25.93 0 0 1-41.862-9.588 25.92 25.92 0 0 1 2.855-24.14 25.93 25.93 0 0 1 21.59-11.17M56.06 3.009a6.19 6.19 0 0 0-5.806 3.87L10 95.904h15.87l5.805-12.773h48.77l5.805 12.773h15.87L61.866 6.88a5.806 5.806 0 0 0-5.806-3.87m-17.805 65.8L56.06 29.33l17.805 39.48zm308.486 27.094h15.095V19.266h-15.095zM248.428 58.36a40.644 40.644 0 0 0-39.093-40.641c-.774 0-1.161.387-.774.774a43 43 0 0 0 11.612 15.482c8.515 6.58 13.547 14.321 13.547 23.998a25.548 25.548 0 0 1-49.148 9.776 25.6 25.6 0 0 1-1.944-9.776c0-9.677 5.032-17.418 13.16-23.998A41.4 41.4 0 0 0 207.4 18.492c.387-.774.387-1.162-.387-1.162a40.64 40.64 0 0 0-39.867 40.642A40.25 40.25 0 0 0 207.4 97.064a43.35 43.35 0 0 0 27.481-8.902l7.354 7.354h22.449L244.17 76.163a40.64 40.64 0 0 0 4.258-17.804m186.949-39.093v11.612l-3.097-2.71a31.74 31.74 0 0 0-23.61-11.225 32.51 32.51 0 0 0-25.546 11.612 41.42 41.42 0 0 0-10.451 28.642 42.58 42.58 0 0 0 10.451 29.417 34.07 34.07 0 0 0 24.521 11.268 34.06 34.06 0 0 0 25.022-10.107l2.71-2.709v10.45h15.095v-76.25zm-5.806 58.058a22.45 22.45 0 0 1-17.805 7.742 21.68 21.68 0 0 1-17.03-8.129 29.8 29.8 0 0 1-6.58-19.74 27.48 27.48 0 0 1 6.967-18.965 20.52 20.52 0 0 1 17.03-7.742 22.45 22.45 0 0 1 17.805 7.742 29.42 29.42 0 0 1 6.58 19.353 27.87 27.87 0 0 1-6.967 19.739M316.937 57.585c0 15.869-8.128 25.932-20.901 25.932s-21.288-10.063-21.288-25.932v-38.32h-15.096v38.32c0 23.61 15.096 40.641 35.997 40.641s36.77-17.031 36.77-40.641v-38.32h-15.482z"/></svg>