<svg xmlns="http://www.w3.org/2000/svg" viewBox="0 0 151.958 35.229"><g><polygon fill-rule="evenodd" clip-rule="evenodd" fill="#FFFFFF" points="51.552,21.699 51.552,13.249 48.792,18.731 46.868,18.731 44.065,13.249 44.065,21.699 41.262,21.699 41.262,7.186 44.023,7.186 47.829,15.008 51.594,7.186 54.396,7.186 54.396,21.699 "/><path fill-rule="evenodd" clip-rule="evenodd" fill="#FFFFFF" d="M68.791,16.178c0,0.544-0.041,1.047-0.127,1.547c-0.083,0.461-0.25,0.926-0.418,1.342c-0.209,0.416-0.502,0.791-0.878,1.17c-0.502,0.503-1.087,0.877-1.716,1.172c-0.626,0.252-1.337,0.417-2.176,0.417v-2.554c0.378,0,0.754-0.035,1.046-0.205c0.294-0.126,0.545-0.335,0.755-0.544c0.165-0.172,0.251-0.337,0.375-0.503c0.085-0.211,0.168-0.418,0.209-0.753c0.042-0.294,0.085-0.67,0.126-1.131c0-0.416,0-1.005,0-1.714c0-0.669,0-1.256,0-1.715c-0.041-0.459-0.084-0.837-0.126-1.13c-0.041-0.292-0.124-0.542-0.209-0.71c-0.124-0.167-0.21-0.333-0.375-0.503c-0.21-0.208-0.461-0.415-0.755-0.543c-0.292-0.167-0.668-0.21-1.046-0.21V7.06c0.839,0,1.55,0.126,2.176,0.419c0.629,0.25,1.214,0.667,1.716,1.169c0.376,0.378,0.669,0.752,0.878,1.172c0.168,0.419,0.335,0.878,0.418,1.338c0.086,0.46,0.127,1.002,0.127,1.548c0.04,0.503,0.04,1.087,0.04,1.715C68.831,15.047,68.831,15.634,68.791,16.178z M63.477,21.825L63.477,21.825c-0.833,0-1.548-0.165-2.215-0.417c-0.627-0.295-1.213-0.669-1.715-1.172c-0.378-0.379-0.628-0.754-0.838-1.17c-0.209-0.416-0.334-0.881-0.417-1.342c-0.086-0.5-0.126-1.003-0.168-1.547c0-0.544,0-1.131,0-1.756c0-0.628,0-1.212,0-1.715c0.042-0.546,0.082-1.088,0.168-1.548c0.083-0.46,0.208-0.919,0.417-1.338c0.21-0.42,0.46-0.793,0.838-1.172c0.502-0.502,1.088-0.919,1.715-1.169c0.667-0.293,1.382-0.419,2.215-0.419l0,0v2.55l0,0c-0.374,0-0.753,0.042-1.045,0.21c-0.335,0.128-0.585,0.334-0.795,0.543c-0.125,0.169-0.25,0.335-0.333,0.503c-0.084,0.168-0.168,0.418-0.209,0.71c-0.043,0.293-0.085,0.671-0.126,1.13c0,0.459,0,1.046,0,1.715c0,0.709,0,1.298,0,1.714c0.041,0.461,0.083,0.837,0.126,1.131c0.041,0.335,0.125,0.542,0.209,0.753c0.083,0.166,0.208,0.331,0.333,0.503c0.21,0.209,0.46,0.418,0.795,0.544c0.292,0.17,0.671,0.205,1.045,0.205l0,0V21.825z"/><path fill-rule="evenodd" clip-rule="evenodd" fill="#FFFFFF" d="M81.821,19.271c-0.292,0.546-0.668,1.005-1.13,1.382c-0.501,0.376-1.045,0.669-1.713,0.837c-0.631,0.209-1.34,0.335-2.09,0.335c-1.132,0-2.095-0.165-2.972-0.417c-0.836-0.295-1.633-0.8-2.343-1.507l1.842-1.842c0.459,0.463,1.001,0.795,1.586,0.963c0.587,0.167,1.214,0.249,1.925,0.249c0.835,0,1.465-0.123,1.883-0.456c0.462-0.293,0.67-0.756,0.67-1.342c0-0.501-0.168-0.919-0.463-1.212c-0.123-0.126-0.292-0.249-0.501-0.293c-0.168-0.084-0.418-0.168-0.754-0.21l-1.753-0.249c-1.256-0.169-2.177-0.588-2.805-1.215c-0.711-0.667-1.046-1.631-1.046-2.843c0-0.627,0.085-1.213,0.335-1.757c0.211-0.544,0.543-1.004,1.005-1.381c0.419-0.418,0.962-0.71,1.591-0.919c0.625-0.208,1.336-0.334,2.09-0.334c1.004,0,1.883,0.126,2.636,0.375c0.752,0.293,1.42,0.71,2.049,1.338l-1.755,1.758c-0.506-0.419-0.965-0.712-1.508-0.837c-0.503-0.125-1.006-0.167-1.505-0.167c-0.755,0-1.299,0.167-1.673,0.543c-0.378,0.376-0.546,0.794-0.546,1.298c0,0.166,0.045,0.375,0.083,0.542c0.085,0.169,0.211,0.336,0.336,0.503c0.168,0.125,0.333,0.25,0.585,0.333c0.21,0.126,0.46,0.168,0.755,0.208l1.712,0.253c0.669,0.083,1.215,0.25,1.676,0.418c0.42,0.207,0.792,0.417,1.088,0.708c0.418,0.378,0.71,0.795,0.877,1.34c0.167,0.502,0.251,1.09,0.251,1.716C82.239,18.104,82.116,18.731,81.821,19.271z"/><polygon fill-rule="evenodd" clip-rule="evenodd" fill="#FFFFFF" points="90.354,9.695 90.354,21.699 87.553,21.699 87.553,9.695 83.745,9.695 83.745,7.186 94.161,7.186 94.161,9.695 "/><path fill-rule="evenodd" clip-rule="evenodd" fill="#FFFFFF" d="M105.107,21.699l-0.879-2.593h-2.507v-2.385h1.799l-1.759-5.27l-0.04,0.083V7.186h1.086l5.229,14.513H105.107z M101.722,19.106h-2.593l-0.879,2.593h-2.929l5.271-14.513h1.13v4.349l-1.799,5.187h1.799V19.106z"/><path fill-rule="evenodd" clip-rule="evenodd" fill="#FFFFFF" d="M118.411,21.699l-2.469-5.145v-3.053h0.292c0.629,0,1.131-0.168,1.506-0.503c0.378-0.376,0.543-0.795,0.543-1.38s-0.165-1.045-0.543-1.38c-0.375-0.334-0.877-0.544-1.506-0.544h-0.292V7.186h0.458c0.754,0,1.382,0.124,1.967,0.375c0.586,0.209,1.087,0.543,1.506,0.962c0.42,0.377,0.713,0.835,0.92,1.381c0.21,0.543,0.337,1.13,0.337,1.714c0,0.542-0.084,1.003-0.213,1.38c-0.165,0.417-0.331,0.795-0.585,1.087c-0.25,0.336-0.543,0.586-0.878,0.836c-0.292,0.209-0.624,0.377-1.001,0.502l3.26,6.275H118.411z M115.942,16.555l-0.335-0.67h-2.049v5.814h-2.844V7.186h5.228v2.509h-2.384v3.807h2.384V16.555z"/><path fill-rule="evenodd" clip-rule="evenodd" fill="#FFFFFF" d="M136.641,16.013c0,0.5,0,1.044-0.084,1.544c-0.084,0.503-0.25,0.966-0.462,1.424c-0.208,0.458-0.5,0.921-0.918,1.34c-0.459,0.46-1.007,0.793-1.675,1.044c-0.667,0.21-1.337,0.335-2.09,0.335v-2.551c0.333-0.042,0.667-0.082,0.919-0.208c0.336-0.169,0.628-0.379,0.88-0.672c0.252-0.335,0.415-0.795,0.502-1.379c0.083-0.586,0.124-1.422,0.124-2.51c0-0.545,0-1.005-0.041-1.424c0-0.375-0.043-0.753-0.083-1.045c-0.043-0.292-0.087-0.542-0.168-0.753c-0.082-0.21-0.212-0.376-0.334-0.543c-0.252-0.294-0.544-0.544-0.88-0.667c-0.252-0.128-0.586-0.211-0.919-0.211V7.186c0.753,0,1.423,0.124,2.09,0.333c0.668,0.209,1.216,0.585,1.675,1.046c0.418,0.417,0.71,0.834,0.918,1.296c0.212,0.459,0.378,0.92,0.462,1.381c0.084,0.5,0.084,1.004,0.084,1.546c0,0.503,0,1.046,0,1.591C136.641,14.922,136.641,15.468,136.641,16.013z M131.412,21.699c-0.043,0-0.043,0-0.043,0h-5.229V7.186h5.229c0,0,0,0,0.043,0v2.551c-0.125,0-0.21-0.042-0.295-0.042h-2.132v9.454h2.132c0.085,0,0.17,0,0.295,0V21.699z"/><path fill-rule="evenodd" clip-rule="evenodd" fill="#FFFFFF" d="M148.032,21.699l-0.839-2.593h-2.592v-2.385h1.841l-1.802-5.27l-0.039,0.083V7.186h1.087L151,21.699H148.032z M144.602,19.106h-2.594l-0.878,2.593h-2.931l5.272-14.513h1.13v4.349l-1.801,5.187h1.801V19.106z"/></g><g><path fill="#FFFFFF" d="M26.205,21.369L25.538,4.162l-5.83,0.159l-5.179,10.931L8.143,1.969L1.358,3.924l3.225,25.593l4.766,0.018L9.064,17.731l3.731,5.894l3.925-0.163l3.288-6.146l0.397,11.728l3.527-0.128c-0.46-0.796-0.714-1.699-0.714-2.687C23.219,24.117,24.442,22.271,26.205,21.369z"/><path fill="#FFFFFF" d="M29.368,22.449c-0.095-0.019-0.191-0.031-0.287-0.047c-2.081-0.211-3.956,1.317-4.177,3.415c-0.191,1.939,1.113,3.687,2.97,4.099c0.144,0.029,0.303,0.064,0.445,0.079c2.098,0.208,3.972-1.319,4.178-3.413C32.704,24.577,31.306,22.781,29.368,22.449z"/><path fill="#FFFFFF" d="M29.717,20.939l0.159-0.731l2.636-13.169L34.148,0l-6.75,0.364l-0.017,7.07l-0.016,9.422v4.099c0.38-0.095,0.793-0.144,1.207-0.144C28.969,20.812,29.352,20.86,29.717,20.939z"/></g></svg>