<svg xmlns="http://www.w3.org/2000/svg" width="225" height="80" fill="none" viewBox="0 0 225 80"><path fill="#465eff" d="M79.786 63.561H70.02c-14.967 0-27.143-12.023-27.143-26.804S55.053 9.95 70.02 9.95h9.766v12.328H70.02c-8.186 0-14.848 6.495-14.848 14.476 0 7.98 6.66 14.476 14.849 14.476h9.765zm-42.877.001h-9.765C12.176 63.561 0 51.538 0 36.757S12.176 9.95 27.144 9.95h9.765v12.328h-9.765c-8.186 0-14.849 6.495-14.849 14.476 0 7.98 6.66 14.476 14.849 14.476h9.765zm51.446.001V9.288h20.064q9.254 0 14.622 3.822 5.367 3.821 5.367 10.995 0 6.628-5.523 10.683 9.177 4.837 9.176 13.801-.001 4.369-2.294 7.76-2.295 3.394-6.532 5.301-4.24 1.912-9.995 1.911H88.352zm11.664-31.034q9.1-1.17 12.677-2.923t3.579-4.795q-.001-2.728-2.061-4.095-2.063-1.363-5.95-1.365h-8.245zm11.978 20.743q3.424 0 5.326-1.404 1.905-1.403 1.906-3.9 0-5.537-7.154-8.344-5.445 1.484-12.056 2.495v11.15h11.978zm24.629 10.291V9.288h20.064q9.255 0 14.622 3.822 5.368 3.821 5.368 10.995 0 6.628-5.523 10.683 9.177 4.837 9.176 13.801-.002 4.369-2.294 7.76-2.296 3.394-6.533 5.301-4.24 1.912-9.995 1.911h-24.888zm11.665-31.034q9.1-1.17 12.677-2.923t3.578-4.795q-.001-2.728-2.061-4.095-2.062-1.363-5.95-1.365h-8.244zm11.978 20.743q3.422 0 5.326-1.404t1.906-3.9q0-5.537-7.154-8.344-5.446 1.484-12.056 2.495v11.15h11.978z"/><path fill="#465eff" fill-rule="evenodd" d="m188.378 31.187 3.741-2.498 3.74 2.498-7.481 5zm35.899-25.99-3.74 2.498-3.74-2.498 7.477-5.002v4.999zm0 18.992-17.948 11.997-17.948-11.997 21.313-14.245 3.741 2.498-17.201 11.494 10.471 6.998 4.86-3.25-3.741-2.499 8.976-5.999 7.477 5zm-35.899-11.997L206.326.195l17.948 12-21.313 14.246-3.74-2.502 17.2-11.494-10.47-6.998-4.86 3.247 3.74 2.499-8.975 5.998-7.481-5z" clip-rule="evenodd"/><path fill="#465eff" d="M1.99 79.27a3.83 3.83 0 0 1-1.453-1.499C.181 77.126 0 76.383 0 75.552q0-1.179.544-2.154a4.07 4.07 0 0 1 1.478-1.541 3.93 3.93 0 0 1 2.068-.564q.668-.001 1.216.149t1.075.47l-.453 1.525a3.25 3.25 0 0 0-1.715-.477q-.691 0-1.246.315-.554.316-.87.898-.316.584-.317 1.347c0 .51.106.973.317 1.369q.315.595.864.928a2.26 2.26 0 0 0 1.203.334q.55.001.977-.13.428-.131.884-.37l.44 1.5a5 5 0 0 1-1.133.492 4.7 4.7 0 0 1-1.3.162 4 4 0 0 1-2.039-.528zm6.677.1a2.9 2.9 0 0 1-1.149-1.167q-.411-.75-.41-1.69c0-.627.129-1.165.388-1.662a2.93 2.93 0 0 1 1.077-1.168 2.9 2.9 0 0 1 1.56-.421q1.359.001 2.116.85.757.852.757 2.362v.557H8.764q.154.594.615.964.457.37 1.113.37.558 0 .99-.114.429-.112.812-.34l.31 1.297q-.464.288-1.041.429t-1.188.142q-.966-.001-1.705-.415zm2.718-3.5q-.024-.631-.34-.97-.315-.34-.912-.34-.595.001-.948.356c-.233.237-.385.555-.447.954zm2.83 3.822v-6.323h1.524v.99q.284-.502.793-.799a2.25 2.25 0 0 1 1.161-.298q1.17.001 1.806.85.637.85.637 2.28v3.3h-1.68V76.49q0-.808-.297-1.233c-.197-.282-.502-.422-.906-.422s-.754.14-.997.415q-.363.419-.362 1.133v3.309zm8.667-.613q-.656-.71-.657-2.077v-2.167h-1.252v-1.463h1.252v-1.927h1.68v1.927h2.157l-.213 1.463h-1.942v2.145q0 .584.243.92.244.341.735.341.27 0 .495-.058.22-.06.469-.178l.417 1.32q-.656.463-1.608.464-1.121-.001-1.776-.707zm4.472.613v-6.323h1.524v.963c.18-.318.45-.57.799-.756q.523-.278 1.168-.279.359 0 .692.072l-.275 1.606a2.6 2.6 0 0 0-.75-.094q-.633-.001-1.055.412-.424.408-.424 1.148v3.25zm6.141-.341a3.22 3.22 0 0 1-1.614-2.825c0-.604.145-1.142.433-1.642a3.2 3.2 0 0 1 1.181-1.184 3.2 3.2 0 0 1 1.638-.435q.894 0 1.637.435a3.23 3.23 0 0 1 1.614 2.826 3.22 3.22 0 0 1-1.614 2.826 3.2 3.2 0 0 1-1.637.434 3.2 3.2 0 0 1-1.638-.435m2.76-1.59q.441-.487.44-1.239.001-.749-.44-1.239a1.44 1.44 0 0 0-1.12-.487q-.677 0-1.119.487-.44.489-.44 1.24 0 .748.44 1.239.441.486 1.12.486t1.12-.486m8.046 1.508a3.83 3.83 0 0 1-1.452-1.499c-.356-.645-.538-1.388-.538-2.219q0-1.179.544-2.154a4.07 4.07 0 0 1 1.479-1.541 3.93 3.93 0 0 1 2.067-.564q.67-.001 1.217.149.546.15 1.074.47l-.453 1.525a3.25 3.25 0 0 0-1.715-.477q-.692 0-1.245.315-.555.315-.87.898-.317.584-.318 1.347c0 .51.107.973.317 1.369q.315.595.864.928a2.26 2.26 0 0 0 1.204.334q.549.001.977-.13t.883-.37l.44 1.5a5 5 0 0 1-1.132.492 4.7 4.7 0 0 1-1.3.162 4 4 0 0 1-2.04-.528zm6.085-.327q-.66-.857-.66-2.31v-3.26h1.692v3.188q.001.773.285 1.22.285.448.893.448c.404 0 .747-.146.977-.435q.345-.434.346-1.135v-3.287h1.68v6.323h-1.515v-.976a2.13 2.13 0 0 1-.77.785q-.495.297-1.078.298-1.194 0-1.854-.856zm7.339.187q-.566-.654-.566-1.904V70.76h1.692v6.453q.001.488.191.756.189.27.537.27.215 0 .376-.043.16-.043.34-.136l.43 1.346q-.596.38-1.372.38-1.061.001-1.628-.655m4.488-.052q-.656-.71-.657-2.077v-2.167h-1.252v-1.463h1.252v-1.927h1.68v1.927h2.157l-.213 1.463h-1.942v2.145q0 .584.243.921.244.34.734.34.273 0 .496-.058c.145-.039.304-.1.469-.178l.417 1.32q-.656.463-1.608.464-1.121-.001-1.776-.707zm4.845-.136q-.66-.857-.66-2.31v-3.26h1.692v3.188q.002.773.284 1.22.287.448.893.448c.405 0 .748-.146.978-.435q.346-.434.346-1.135v-3.287h1.68v6.323h-1.515v-.976a2.13 2.13 0 0 1-.77.785q-.495.297-1.078.298-1.194 0-1.854-.856zm6.802.749v-6.323h1.524v.963a1.94 1.94 0 0 1 .8-.756q.522-.278 1.168-.279.358 0 .692.072l-.275 1.606a2.6 2.6 0 0 0-.75-.094q-.632-.001-1.055.412-.424.408-.424 1.148v3.25zm9.344-5.739q.734.69.734 1.953v3.786h-1.523v-.883q-.288.428-.793.704c-.337.185-.725.273-1.162.273q-.869 0-1.375-.458-.506-.459-.508-1.22 0-.69.376-1.161.374-.471 1.203-.756.828-.286 2.2-.415v-.036q.001-1.023-1.226-1.025-.955.002-1.954.558l-.37-1.37a5.4 5.4 0 0 1 1.15-.47 4.5 4.5 0 0 1 1.21-.172q1.31 0 2.044.692zm-1.621 4.376q.35-.195.56-.555c.139-.237.207-.51.207-.81v-.085q-1.072.083-1.644.321-.573.238-.572.704 0 .286.177.451.181.165.512.165c.271 0 .52-.064.757-.197zm4.376.801q-.567-.654-.566-1.904V70.76h1.693v6.453q0 .488.19.756t.538.27q.214 0 .375-.043.16-.044.34-.136l.43 1.346a2.5 2.5 0 0 1-1.372.38q-1.061 0-1.627-.656m6.87.562v-8.286h2.954q1.36 0 2.159.584c.53.39.799.938.799 1.642s-.308 1.262-.92 1.69c.972.51 1.454 1.213 1.454 2.118 0 .438-.114.824-.34 1.168q-.339.511-.984.798-.643.287-1.501.286h-3.624zm1.573-4.643q1.477-.212 2.09-.519.613-.301.615-.827 0-.463-.353-.698-.353-.233-1.006-.233h-1.346zM96.31 78.3q.597 0 .922-.243.328-.243.327-.685-.001-.93-1.24-1.391-.881.248-1.918.405v1.917h1.905zm8.469-4.347q.734.69.735 1.953v3.786h-1.524v-.883q-.287.428-.793.704c-.336.185-.725.273-1.162.273q-.869 0-1.375-.458-.506-.459-.508-1.22.001-.69.376-1.16c.249-.316.65-.565 1.203-.757.554-.191 1.285-.327 2.201-.415v-.036q0-1.023-1.227-1.025-.955.002-1.954.558l-.369-1.369a5.4 5.4 0 0 1 1.149-.47 4.5 4.5 0 0 1 1.21-.172q1.31 0 2.045.69zm-1.621 4.376a1.46 1.46 0 0 0 .56-.555c.139-.236.207-.509.207-.81v-.085q-1.072.083-1.644.321-.572.239-.572.704-.001.286.178.451.18.165.511.166c.272 0 .521-.065.757-.198zm3.834 1.363v-6.323h1.524v.989q.285-.501.793-.798a2.25 2.25 0 0 1 1.161-.299c.78 0 1.382.286 1.806.85q.636.851.637 2.281v3.3h-1.679V76.49q0-.81-.298-1.233-.297-.423-.906-.422c-.404 0-.753.14-.996.415q-.364.419-.363 1.132v3.31zm8.612-.315a2.9 2.9 0 0 1-1.133-1.155q-.411-.742-.41-1.71c0-.645.142-1.164.43-1.66a3.15 3.15 0 0 1 2.763-1.59q.524 0 .955.126.428.124.87.386l-.404 1.405a2.46 2.46 0 0 0-1.324-.38c-.475 0-.851.156-1.148.47q-.447.47-.447 1.243c0 .516.149.944.447 1.262q.445.477 1.138.477c.279 0 .521-.032.735-.1a3.3 3.3 0 0 0 .66-.305l.404 1.391a3.1 3.1 0 0 1-.876.416q-.449.13-1.042.13a3.2 3.2 0 0 1-1.615-.412zm5.753-.026a3.2 3.2 0 0 1-1.181-1.177 3.2 3.2 0 0 1-.434-1.648c0-.604.146-1.142.434-1.642.291-.5.682-.895 1.181-1.184a3.2 3.2 0 0 1 1.637-.435q.894 0 1.637.435.744.434 1.181 1.184.435.75.434 1.642a3.22 3.22 0 0 1-1.615 2.826 3.2 3.2 0 0 1-1.637.434 3.2 3.2 0 0 1-1.637-.435m2.76-1.59q.44-.487.44-1.239 0-.749-.44-1.239a1.45 1.45 0 0 0-1.12-.487q-.679 0-1.119.487-.441.489-.44 1.24-.001.748.44 1.239.44.486 1.119.486.678 0 1.12-.486m7.336 1.618a2.73 2.73 0 0 1-1.012-1.132q-.364-.726-.363-1.677c0-.633.126-1.204.382-1.703q.384-.751 1.048-1.171a2.77 2.77 0 0 1 1.515-.422q.559 0 1.035.22c.317.146.586.344.799.59v-3.321h1.679v8.928h-1.524v-1q-.31.489-.857.792a2.5 2.5 0 0 1-1.226.305 2.74 2.74 0 0 1-1.473-.405zm2.951-1.534q.452-.439.453-1.214v-.178q0-.774-.453-1.226a1.52 1.52 0 0 0-1.119-.451q-.407 0-.751.214t-.553.613q-.208.398-.207.947 0 .809.433 1.275.437.464 1.078.464c.427 0 .818-.146 1.119-.44zm5.009 1.505a3.23 3.23 0 0 1-1.614-2.826c0-.603.145-1.142.433-1.641.292-.5.683-.895 1.181-1.184a3.2 3.2 0 0 1 1.638-.435q.894 0 1.637.435a3.23 3.23 0 0 1 1.614 2.825 3.22 3.22 0 0 1-1.614 2.826 3.2 3.2 0 0 1-1.637.435 3.2 3.2 0 0 1-1.638-.435m2.76-1.59c.295-.324.44-.74.44-1.239q.001-.748-.44-1.24a1.44 1.44 0 0 0-1.119-.486q-.678 0-1.12.487-.44.488-.44 1.24 0 .747.44 1.239.441.486 1.12.486t1.119-.486m6.35 1.93v-8.286h2.954q1.358 0 2.158.584.798.585.799 1.641c0 .704-.307 1.262-.919 1.69q1.455.763 1.453 2.12c0 .437-.113.823-.34 1.167q-.339.51-.983.798-.644.287-1.502.286h-3.623zm1.572-4.643q1.478-.214 2.09-.519.613-.302.615-.827.001-.463-.352-.698-.353-.233-1.007-.233h-1.346zm1.906 3.25q.597 0 .922-.243.328-.242.327-.684 0-.93-1.239-1.392-.882.25-1.919.406v1.917h1.906zm4.163 1.393v-6.323h1.524v.963a1.94 1.94 0 0 1 .799-.756q.524-.278 1.168-.279.359 0 .693.072l-.275 1.606a2.6 2.6 0 0 0-.751-.095q-.632 0-1.055.413-.423.408-.424 1.148v3.25zm9.35-5.739q.733.69.734 1.953v3.786h-1.524v-.883q-.287.428-.793.704c-.336.185-.724.273-1.161.273q-.87 0-1.375-.457-.507-.46-.508-1.22 0-.69.375-1.162c.249-.315.65-.564 1.204-.756q.828-.285 2.2-.415v-.036q0-1.023-1.226-1.025-.956.002-1.955.558l-.369-1.369a5.4 5.4 0 0 1 1.149-.47 4.5 4.5 0 0 1 1.21-.172q1.312 0 2.045.69zm-1.621 4.376q.35-.194.559-.554.208-.357.207-.812v-.084q-1.071.083-1.643.321-.573.239-.573.704-.001.286.178.451.18.166.511.166c.272 0 .521-.065.757-.198zm4.566 1.269q-.697-.192-1.104-.451l.418-1.311q.381.215.948.386t1.126.172q.846 0 .848-.477 0-.264-.275-.415-.273-.156-.978-.38-.906-.285-1.352-.733-.447-.447-.447-1.22 0-.869.673-1.388.675-.518 1.699-.52.56.001 1.12.163.558.162.99.434l-.418 1.25a4.7 4.7 0 0 0-.841-.335 3 3 0 0 0-.851-.13q-.358 0-.573.12a.39.39 0 0 0-.213.37q0 .215.213.357.215.142.716.322c.517.181.922.36 1.219.528q.447.257.68.62.233.365.233.934c0 .594-.227 1.061-.68 1.392q-.68.498-1.825.5-.63 0-1.329-.192zm5.177-7.258a.93.93 0 0 1-.284-.697c0-.28.093-.522.284-.714a.98.98 0 0 1 .728-.285c.295 0 .537.094.735.279a.92.92 0 0 1 .291.684.996.996 0 0 1-1.026 1.012q-.441 0-.728-.279m1.563 7.352h-1.679v-6.323h1.679zm2.141-.562q-.568-.654-.567-1.904V70.76h1.693v6.453q0 .488.191.756.188.268.537.27.214 0 .375-.043.16-.043.34-.136l.43 1.346q-.596.38-1.372.38-1.061 0-1.627-.655"/></svg>