<?xml version="1.0" encoding="UTF-8"?>
<svg id="Camada_1" data-name="Camada 1" xmlns="http://www.w3.org/2000/svg" viewBox="0 0 1524.45 726.9">
  <defs>
    <style>
      .cls-1 {
        fill: #d43d25;
      }

      .cls-1, .cls-2, .cls-3, .cls-4 {
        stroke-width: 0px;
      }

      .cls-2 {
        fill: #e15711;
      }

      .cls-3 {
        fill: #f8ab1b;
      }

      .cls-4 {
        fill: #fff8e9;
      }
    </style>
  </defs>
  <path id="Retângulo_570" data-name="Retângulo 570" class="cls-3" d="M1232.16,457.53h0c7.75,0,14.03,6.28,14.03,14.03h0c0,7.75-6.28,14.03-14.03,14.03h0c-7.75,0-14.03-6.28-14.03-14.03h0c0-7.75,6.28-14.03,14.03-14.03Z"/>
  <path id="Retângulo_615" data-name="Retângulo 615" class="cls-2" d="M1273.35,457.53h0c7.75,0,14.03,6.28,14.03,14.03h0c0,7.75-6.28,14.03-14.03,14.03h0c-7.75,0-14.03-6.28-14.03-14.03h0c0-7.75,6.28-14.03,14.03-14.03Z"/>
  <path id="Retângulo_616" data-name="Retângulo 616" class="cls-1" d="M1314.54,457.53h0c7.75,0,14.03,6.28,14.03,14.03h0c0,7.75-6.28,14.03-14.03,14.03h0c-7.75,0-14.03-6.28-14.03-14.03h0c0-7.75,6.28-14.03,14.03-14.03Z"/>
  <g>
    <path class="cls-4" d="M503.24,277.96v-32h5.68v32c0,16.31,9.64,25.33,24.46,25.33s24.46-9.02,24.46-25.33v-32h5.68v32c0,20.14-12.11,30.64-30.15,30.64s-30.14-10.5-30.14-30.64Z"/>
    <path class="cls-4" d="M575.64,270.92c0-17.79,10.38-26.56,24.34-26.56,10.38,0,18.9,5.19,22.36,15.44,3.46-10.25,11.86-15.44,22.36-15.44,13.96,0,24.34,8.77,24.34,26.56v36.08h-5.68v-36.08c0-14.21-8.03-21.25-19.03-21.25s-19.15,7.41-19.15,21.25v36.08h-5.68v-36.08c0-13.84-8.16-21.25-19.15-21.25s-19.03,7.04-19.03,21.25v36.08h-5.68v-36.08Z"/>
    <path class="cls-4" d="M715.98,243c0-16.8,10.25-25.33,25.2-25.33s25.21,9.02,25.21,25.82h-5.56c0-13.71-7.66-20.51-19.65-20.51s-19.52,6.55-19.52,20.02v11.49h37.68v5.19h-37.68v47.32h-5.68v-64Z"/>
    <path class="cls-4" d="M772.81,227.55c0-2.72,2.1-4.82,4.82-4.82s4.82,2.1,4.82,4.82-2.1,4.82-4.82,4.82-4.82-2.1-4.82-4.82ZM774.91,245.96h5.68v61.03h-5.68v-61.03Z"/>
    <path class="cls-4" d="M797.52,219.27h5.68v87.72h-5.68v-87.72Z"/>
    <path class="cls-4" d="M817.65,270.92c0-17.79,10.38-26.56,24.34-26.56,10.38,0,18.9,5.19,22.36,15.44,3.46-10.25,11.86-15.44,22.36-15.44,13.96,0,24.34,8.77,24.34,26.56v36.08h-5.68v-36.08c0-14.21-8.03-21.25-19.03-21.25s-19.15,7.41-19.15,21.25v36.08h-5.68v-36.08c0-13.84-8.15-21.25-19.15-21.25s-19.03,7.04-19.03,21.25v36.08h-5.68v-36.08Z"/>
    <path class="cls-4" d="M920.69,276.48c0-18.53,13.59-32.12,32.86-32.12s32.74,13.59,32.74,32.12v1.48h-59.8c.62,14.7,11.36,25.33,27.06,25.33,11.12,0,19.64-5.07,23.97-13.47h6.18c-4.7,11.37-15.81,18.78-30.15,18.78-19.27,0-32.86-13.59-32.86-32.12ZM980.36,272.77c-1.6-13.84-12.23-23.1-26.81-23.1s-25.33,9.39-26.93,23.1h53.74Z"/>
  </g>
  <g>
    <path id="Caminho_894" data-name="Caminho 894" class="cls-4" d="M263.54,429.87c0-36.89,29.36-36.5,54.53-36.5,14.1,0,24.02-12.98,31.18-2.13v-60.54h29.3v99.38c0,35.59-23.87,57.5-57.07,57.5s-57.94-23.22-57.94-57.72M349.25,431.16c0-17.14-11.29-29.07-28-29.07s-27.99,11.93-27.99,29.08,11.28,29.08,27.99,29.08,27.99-11.93,27.99-29.08"/>
    <path id="Caminho_895" data-name="Caminho 895" class="cls-4" d="M398.94,349.76c0-11.07,8.03-19.1,19.1-19.1s19.1,8.03,19.1,19.1-8.03,19.1-19.1,19.1-19.1-8.03-19.1-19.1M403.28,377.58h29.29v107.19h-29.29v-107.19Z"/>
    <path id="Caminho_888" data-name="Caminho 888" class="cls-4" d="M453.19,432.47c0-34.5,23.87-57.72,57.94-57.72s57.07,22.57,57.07,57.5v52.51h-26.91v-19.31c-6.08,14.54-19.31,22.13-35.59,22.13-24.74,0-52.51-18.23-52.51-55.12M538.9,431.17c0-17.14-11.28-29.08-27.99-29.08s-27.99,11.93-27.99,29.07,11.28,29.08,27.99,29.08,27.99-11.93,27.99-29.08"/>
    <path id="Caminho_889" data-name="Caminho 889" class="cls-4" d="M589.46,432.26c0-35.59,23.87-57.5,57.07-57.5s57.94,23.22,57.94,57.72c0,36.89-27.56,55.12-52.73,55.12-14.1,0-25.82-5.64-32.98-16.49v60.46h-29.29v-99.3ZM674.74,431.17c0-17.14-11.28-29.08-27.99-29.08s-27.99,11.93-27.99,29.08,11.28,29.08,27.99,29.08,27.99-11.93,27.99-29.08"/>
    <path id="Caminho_890" data-name="Caminho 890" class="cls-4" d="M717.06,432.47c0-34.5,23.87-57.72,57.94-57.72s57.07,22.57,57.07,57.5v52.51h-26.91v-19.31c-6.08,14.54-19.31,22.13-35.59,22.13-24.74,0-52.51-18.23-52.51-55.12M802.77,431.17c0-17.14-11.28-29.08-27.99-29.08s-27.99,11.93-27.99,29.08,11.28,29.08,27.99,29.08,27.99-11.93,27.99-29.08"/>
    <path id="Caminho_891" data-name="Caminho 891" class="cls-4" d="M848.99,452.65h29.29c.22,6.29,5.42,10.2,16.06,10.2,11.5,0,16.06-4.56,16.06-9.98,0-7.6-8.68-8.46-19.53-9.98-15.62-2.17-39.93-5.42-39.93-31.46,0-21.92,16.93-36.67,43.4-36.67s42.75,15.19,43.4,34.28h-28.86c-.65-5.86-5.86-9.55-14.1-9.55-9.77,0-14.1,4.77-14.1,10.2,0,7.16,8.68,8.25,19.53,9.76,14.76,2.17,39.71,5.64,39.71,31.68,0,21.92-17.79,36.46-45.35,36.46s-44.92-14.76-45.57-34.94"/>
    <path id="Caminho_892" data-name="Caminho 892" class="cls-4" d="M956.84,432.27c0-32.55,23.87-56.42,57.72-56.42s57.72,23.87,57.72,56.42-23.87,56.42-57.72,56.42-57.72-23.87-57.72-56.42M1042.55,432.27c0-17.14-11.28-29.08-27.99-29.08s-27.99,11.93-27.99,29.08,11.28,29.08,27.99,29.08,27.99-11.93,27.99-29.08"/>
    <path id="Caminho_893" data-name="Caminho 893" class="cls-4" d="M1085.08,429.22c0-36.02,21.27-54.47,52.95-54.47s52.95,18.23,52.95,54.47v55.55h-29.29v-55.55c0-18.66-9.55-27.12-23.65-27.12s-23.65,8.46-23.65,27.12v55.55h-29.29v-55.55Z"/>
    <path id="Caminho_892-2" data-name="Caminho 892" class="cls-4" d="M263.32,431.17c0-32.55,23.87-56.42,57.72-56.42s57.72,23.87,57.72,56.42-23.87,56.42-57.72,56.42-57.72-23.87-57.72-56.42M349.03,431.17c0-17.14-11.28-29.08-27.99-29.08s-27.99,11.93-27.99,29.08,11.28,29.08,27.99,29.08,27.99-11.93,27.99-29.08"/>
  </g>
</svg>